<?xml version="1.0" encoding="utf-8"?>
<!DOCTYPE svg PUBLIC "-//W3C//DTD SVG 1.0//EN" "http://www.w3.org/TR/2001/REC-SVG-20010904/DTD/svg10.dtd">
<svg version="1.0" xmlns="http://www.w3.org/2000/svg" width="512px" height="512px" viewBox="0 0 512 512" preserveAspectRatio="xMidYMid meet">
 <g fill="#c71315">
  <path d="M133.7 466.2 c2 -3.7 5 -6.8 5.8 -6 0.3 0.3 -1.3 2.5 -3.5 4.9 -3.9 4.1 -4 4.2 -2.3 1.1z"/>
  <path d="M203.7 431.5 c-0.4 -0.8 0.5 -2.3 2 -3.5 2.7 -2.1 2.7 -2.1 3.8 0.7 0.7 1.5 1 3.1 0.8 3.6 -0.8 1.3 -6.1 0.7 -6.6 -0.8z"/>
  <path d="M260.4 425.6 c-1.1 -2.8 0.4 -4.6 3.6 -4.6 2.8 0 3.1 0.3 2.8 2.8 -0.2 2.1 -0.9 2.8 -3.1 3 -1.8 0.2 -2.9 -0.2 -3.3 -1.2z"/>
  <path d="M167.8 424.5 c1.3 -2.7 7.2 -10 7.2 -9 0 0.4 -1.4 2.6 -3.2 4.9 -4.1 5.4 -5.3 6.5 -4 4.1z"/>
  <path d="M180.1 422.4 c1.6 -2.7 1.9 -3.8 1 -4.3 -0.8 -0.5 -1 -1.8 -0.5 -3.4 0.7 -3 1.4 -3.3 3.2 -1.5 0.9 0.9 1.5 0.8 2.8 -0.8 1.4 -1.8 1.4 -1.8 0.3 0.6 -1.6 3.2 -8.1 13 -8.6 13 -0.3 0 0.5 -1.6 1.8 -3.6z"/>
  <path d="M293 416.3 c0 -1.4 -0.2 -1.5 -0.9 -0.4 -0.6 0.8 -1 -1.4 -1.3 -6.2 -0.2 -4.2 -0.6 -7.9 -1 -8.2 -0.4 -0.4 -2.7 0 -5.2 0.8 -4.6 1.6 -4.6 1.6 -5.2 -0.8 -0.3 -1.3 -0.1 -4 0.6 -6 0.9 -2.7 0.9 -5.2 0 -10.6 -1.2 -7.1 -0.5 -38.7 0.9 -37.4 0.3 0.4 0.6 6.2 0.6 12.8 0 9.8 0.3 12.1 1.4 11.9 0.9 -0.2 1.1 0.3 0.6 1.5 -1.5 3.6 -1.7 6.2 -0.5 9.7 0.9 2.7 0.8 4 -0.1 5.7 -1 2 -0.8 2.6 1.5 4.6 1.9 1.6 3.4 2.1 5.1 1.7 2.1 -0.5 2.3 -0.2 2.9 4.3 1.2 11 1.7 18.3 1.2 18.3 -0.3 0 -0.6 -0.8 -0.6 -1.7z"/>
  <path d="M411.6 416.2 c-0.8 -1.3 1.1 -3.5 2.3 -2.8 1.6 1 1.4 3.6 -0.3 3.6 -0.8 0 -1.7 -0.4 -2 -0.8z"/>
  <path d="M310.6 409.7 c-2.2 -2.2 -2.4 -3 -1.6 -5.2 0.6 -1.5 1 -3.7 1 -5.1 0 -1.7 0.5 -2.4 2 -2.4 1.3 0 2.2 -0.9 2.6 -2.6 0.7 -2.6 0.7 -2.6 4.4 1.1 3.3 3.2 3.9 3.5 4.3 1.9 0.3 -1.1 0.6 -0.1 0.7 2.1 0.5 9.5 -0.5 11.4 -6.8 12.2 -3.4 0.5 -4.4 0.1 -6.6 -2z"/>
  <path d="M183 407.8 c0 -0.9 0.9 -2.6 2 -3.9 2 -2.4 2 -2.4 0.3 1.1 -2 4.4 -2.3 4.7 -2.3 2.8z"/>
  <path d="M428.7 405.3 c-0.4 -0.3 -0.7 -1.5 -0.7 -2.5 0 -2.6 4.6 -2.5 5.3 0.1 0.6 2.4 -2.9 4.2 -4.6 2.4z"/>
  <path d="M259.1 386.3 c0.1 -13.1 -0.1 -15.4 -1.6 -16.9 -2.1 -2.1 -3.5 -5.7 -3.5 -9 0 -1.9 -0.5 -2.4 -2.7 -2.5 -2.1 -0.1 -2.3 -0.2 -0.8 -0.6 2.8 -0.7 4.5 -2.3 4.5 -4.1 0 -0.8 1.2 -3.9 2.6 -6.9 2.2 -4.7 2.9 -5.4 5.1 -5.1 1.8 0.2 3 -0.4 4 -1.9 1.4 -2.1 1.4 -2.3 -0.9 -3.2 -1.4 -0.5 -4 -1.1 -5.8 -1.3 -3 -0.3 -3.4 0 -4.1 2.7 -1.2 4.3 -4.3 7.3 -8.7 8.4 -8.6 2.1 -9.4 2.2 -8.6 1 0.5 -0.9 0.1 -1 -1.4 -0.7 -1.2 0.4 -2 0.2 -1.7 -0.2 0.3 -0.5 0.1 -1.1 -0.4 -1.4 -0.5 -0.4 -1.9 0.9 -3 2.8 -1.9 3 -2.5 3.3 -4.9 2.7 -2.7 -0.8 -2.9 -1.6 -1.6 -5.9 0.7 -2.4 0.7 -2.4 -2.5 -0.8 -3.9 2.1 -4 1.3 -0.9 -7.9 1.9 -6.1 2 -6.7 0.5 -8.2 -1.4 -1.4 -1.8 -1.5 -3.9 -0.1 -2.3 1.5 -2.3 1.5 -2.6 -4.1 -0.2 -3.1 -0.5 -5.8 -0.8 -6 -0.2 -0.3 -1.7 0.7 -3.2 2 -1.5 1.4 -5.2 4.4 -8.3 6.7 -7 5.2 -17.8 16.4 -21.5 22.2 -2.7 4.2 -3.2 4.5 -7.5 4.6 -3.8 0 -5.4 0.7 -9.2 3.8 -3.4 2.8 -4.7 3.4 -4.7 2.2 0 -0.8 1.3 -2.2 3 -3.1 3.6 -1.9 5.7 -5.2 4.1 -6.8 -0.6 -0.6 -1.1 -2.4 -1.1 -3.9 0 -7.7 6.8 -12.5 13.1 -9.3 3.2 1.7 3.2 1.7 10.6 -5.7 4.1 -4 8.2 -8.7 9.1 -10.5 1 -1.8 4.4 -6 7.7 -9.4 4.4 -4.6 5.4 -6.1 3.8 -5.7 -1.3 0.4 -2.3 0.2 -2.3 -0.2 0 -0.5 -1 -1.2 -2.2 -1.6 -1.3 -0.4 -2.7 -1.2 -3.1 -1.8 -0.5 -0.6 -0.6 -0.2 -0.3 1 0.4 1.4 -0.1 2.7 -1.6 4 -1.3 1 -1.7 1.2 -1 0.4 0.6 -0.8 1.2 -2.6 1.2 -4.1 0 -2.2 -0.6 -2.8 -3.1 -3.3 -3.4 -0.7 -5.8 -3.1 -5.9 -5.8 0 -2.3 -1.3 -2.3 -8.6 0.2 -3.2 1.1 -6.8 2 -8 2 -4.4 0 -8.4 2.1 -8.4 4.3 0 1.7 -0.2 1.9 -0.9 0.7 -0.6 -0.8 -0.8 -1.7 -0.6 -2 0.2 -0.4 -2.6 -0.2 -6.3 0.3 -3.7 0.4 -7 1.3 -7.3 1.9 -0.4 0.6 -1.2 0.7 -1.9 0.3 -0.7 -0.4 -5.1 -0.7 -9.9 -0.6 -4.7 0.1 -8.1 -0.2 -7.6 -0.6 0.6 -0.5 1.5 -2.1 2.1 -3.8 0.6 -1.6 1.6 -2.9 2.3 -2.7 0.7 0.1 1 -0.2 0.7 -0.7 -0.4 -0.5 -0.2 -1.2 0.4 -1.6 1.7 -1.1 1.1 3.7 -0.7 5.8 -1.8 1.9 -1.7 2 4.2 1.3 3.3 -0.4 6.5 -1.3 7 -1.9 1.3 -1.5 3.9 -2.1 3 -0.7 -0.4 0.6 0.6 1 2.3 1 2.5 0 2.9 -0.3 2.5 -1.9 -0.4 -1.4 0.3 -2.4 2.6 -3.5 3 -1.6 3.1 -1.6 3.7 0.9 0.3 1.4 0.4 3.1 0.1 3.9 -0.4 1 0.3 1.2 3.6 0.5 6.3 -1.2 9.7 -2.7 10.3 -4.6 0.3 -1 1 -2.7 1.5 -3.8 0.8 -1.8 0.9 -1.8 0.3 0.3 -0.4 1.6 -0.1 2.2 1 2.2 0.9 0 1.6 -0.4 1.6 -1 0 -0.5 0.7 -0.7 1.5 -0.4 0.8 0.3 2 0.2 2.7 -0.2 0.7 -0.5 1.5 -0.9 1.8 -0.9 1.6 -0.1 7 -2.9 7 -3.6 0 -0.5 -1.2 -1.1 -2.7 -1.4 -1.6 -0.3 -4.4 -1 -6.3 -1.5 -3 -0.8 -3.8 -0.6 -6 1.5 -2.6 2.5 -6 3.4 -6 1.5 0 -0.5 0.9 -1.4 2 -2 3 -1.6 2.4 -3.5 -2 -7 -3 -2.4 -3.8 -3.5 -3 -4.5 0.6 -0.7 0.8 -2 0.4 -2.9 -0.4 -1 -0.1 -1.6 0.7 -1.6 0.7 0 1 -0.3 0.7 -0.6 -1 -0.9 -4.8 1.5 -4.8 3 0 1.7 -3.5 4.8 -4.4 3.9 -0.4 -0.4 -0.4 0 -0.1 0.8 0.7 1.9 -2 4.5 -3 2.9 -1.2 -2 -3.4 -1 -3.8 1.8 -0.3 2.2 -0.4 2.1 -0.6 -0.9 -0.1 -3.6 -0.1 -3.6 -6.8 -4.2 -3.8 -0.3 -7.8 -0.9 -9 -1.3 -1.4 -0.4 -2.3 -0.2 -2.3 0.4 0 0.6 1.8 1.3 4 1.7 2.2 0.4 4 1.1 4 1.7 0 0.7 -1.4 0.8 -3.7 0.4 -2.1 -0.3 -4.8 -0.6 -6.1 -0.6 -1.4 0 -2.1 -0.4 -1.6 -1.1 0.4 -0.8 -0.1 -0.9 -1.7 -0.4 -1.3 0.4 -2.6 1.2 -2.7 1.6 -0.2 0.5 -0.8 0.7 -1.3 0.4 -0.5 -0.4 -2.5 -0.2 -4.5 0.4 -3 0.8 -3.9 0.7 -5.7 -0.9 -1.1 -1.1 -2.4 -1.7 -2.9 -1.4 -0.5 0.4 -0.4 -0.3 0.3 -1.4 1.1 -1.8 0.9 -3 -1.3 -8.3 -2.5 -6.3 -2.5 -6.3 0.1 -7.7 4 -2.1 4.5 -2.9 2.2 -4.1 -1.2 -0.7 -2.1 -1.8 -2.1 -2.7 0 -1.1 0.4 -1.2 1.9 -0.4 2.9 1.5 5.1 1.2 5.1 -0.7 0 -2.5 1.8 -0.3 2.2 2.7 0.2 1.9 1.2 2.7 4.3 3.6 2.2 0.7 3.4 1.3 2.8 1.3 -2.6 0.2 -1.2 2.1 1.5 2.1 4.9 0 10.2 -2 10.3 -3.8 0 -1 0.3 -1.2 0.6 -0.4 0.9 2.2 2 1.3 2.1 -1.9 0.1 -2.8 -0.1 -3 -2.9 -2.4 -3.6 0.8 -9.4 -1 -13.8 -4.3 -3.2 -2.4 -3.9 -2.5 -15.2 -2.3 -6.6 0.1 -11.9 0 -11.9 -0.3 0 -1.6 8 -3.6 14.6 -3.6 5.8 0 7.4 -0.3 7.4 -1.5 0 -0.8 -1.4 -1.8 -3.2 -2.3 -2.7 -0.7 -3.3 -1.3 -3.3 -3.5 -0.1 -2 0.3 -2.6 1.3 -2.2 0.7 0.3 1.8 0.5 2.3 0.5 0.5 0 0.9 0.7 0.9 1.5 0 0.8 0.5 1.5 1 1.5 0.6 0 1 -1.1 1 -2.4 0 -1.3 1.2 -3.5 2.6 -4.9 2.5 -2.5 2.5 -2.7 0.9 -5.4 -2.1 -3.6 -6.7 -7.1 -7.3 -5.5 -0.4 1.4 -3.1 0.5 -5.9 -2.1 -2.3 -2 -2.3 -2 0.5 -3.7 1.5 -1 3.2 -1.4 3.7 -0.9 0.6 0.4 5.6 0.8 11.3 0.8 9.9 0 10.2 -0.1 9.1 -2 -0.6 -1.1 -1.7 -2.3 -2.6 -2.6 -1.2 -0.5 -1.1 -0.9 0.8 -1.9 1.3 -0.7 3.2 -1.3 4.2 -1.4 2.9 0 1.9 -2.4 -2.4 -5.7 -2.2 -1.7 -4 -3.5 -4 -4 0 -0.4 -0.4 -2.4 -0.9 -4.3 -1.6 -5.9 -1.3 -7 1.9 -7 5.4 0 4.6 -6.4 -1.2 -9.5 -2 -1.1 -3.7 -2.4 -3.7 -3 0 -0.9 6.7 -4.5 8.3 -4.5 0.4 0 0.7 1.1 0.7 2.5 0 1.8 0.5 2.5 2 2.5 1.1 0 2 0.7 2 1.5 0 0.8 0.7 1.5 1.5 1.5 0.8 0 1.5 0.5 1.5 1.1 0 0.5 -0.6 0.7 -1.2 0.4 -0.7 -0.4 -0.2 0.2 1.2 1.4 4.5 3.6 15.6 9.8 18.9 10.6 3 0.6 3.2 0.6 2 -1.3 -1.3 -2 -8.9 -6.2 -11.3 -6.2 -1.5 0 -4.6 -3.2 -4.6 -4.8 0 -0.6 1.7 -1.4 3.8 -1.8 2 -0.3 5.6 -1.5 8 -2.6 4.2 -2 4.2 -2 1.7 -5 -2.8 -3.3 -3.2 -7.4 -1.2 -10.3 1.1 -1.4 2.1 -1.6 4.8 -1.1 2.8 0.5 3.8 1.4 5.4 4.9 1.4 2.8 2.7 4.3 4.3 4.5 1.2 0.2 2.2 -0.1 2.2 -0.7 0 -0.6 0.7 -1.1 1.5 -1.1 1.9 0 1.9 -0.9 0 -3.4 -2.1 -2.7 -1.9 -5.3 0.4 -6.6 3.1 -1.6 6.9 -1.2 9.1 1 2.5 2.5 2.6 5.4 0.1 7.9 -1.7 1.7 -1.7 2 -0.2 4.5 0.8 1.4 2 2.6 2.5 2.6 0.5 0 2 1 3.3 2.2 2 1.9 2.7 2 4.3 1 5 -3.1 10.6 0.2 9.8 5.8 -0.3 1.6 -0.1 3 0.3 3 1.3 0 2.6 -3.1 3.4 -8 1 -6.1 2 -7 7.4 -7 4.7 0 7.1 -1.3 7.1 -3.6 0 -0.7 -2.5 -2.1 -5.5 -3 -5.4 -1.7 -5.5 -1.8 -5.5 -5.6 0 -3.4 0.3 -3.8 2.4 -3.8 5.8 0 7.2 -2.4 3.4 -6.1 -2.8 -2.7 -0.3 -1.4 3.1 1.5 1.9 1.7 2.5 1.8 2.9 0.6 0.3 -0.8 1.7 1.7 3.2 5.5 1.8 4.9 3.1 7 4.3 6.9 1.8 -0.2 5.5 7 6.1 11.8 0.2 1.8 1.2 3.8 2.2 4.5 2.3 1.6 3.5 1.7 2.9 0 -0.3 -0.6 -0.7 -2.5 -0.9 -4.2 -0.6 -4.9 -2.8 -11.5 -3.7 -10.9 -0.5 0.3 -0.9 -0.3 -1 -1.3 -0.2 -4.7 -0.3 -4.8 -12 -24.5 -3.4 -5.8 -4.9 -7.1 -4.9 -4.3 0 2.6 -1.4 1.6 -5.7 -4.3 -5.3 -7.1 -7.7 -13.9 -7 -19.8 0.3 -2.8 0 -5 -0.9 -6.3 -6.9 -9.8 -8.4 -20.1 -3 -20.1 1.3 0 4.4 -1.4 6.9 -3.1 5.4 -3.5 6.9 -3.3 9.7 1.3 2.4 3.9 2.6 8.5 0.5 11.4 -2.1 3.1 -0.3 8.3 6.3 18.2 5.2 7.7 5.6 8.8 5.7 14.5 0.1 5.1 1.3 9.5 3.1 11.6 0.1 0.1 1.2 -0.6 2.4 -1.7 1.8 -1.7 2.7 -1.9 4.8 -1.1 1.3 0.5 2.6 0.8 2.7 0.7 0.1 -0.2 -1.8 -7.5 -4.2 -16.3 -4.4 -16.4 -10.6 -43.4 -11.8 -51.5 -0.7 -4.5 -0.7 -4.5 1.8 -1 1.4 2.1 2.7 5.8 3.1 9 1.1 8.2 5.3 29.8 8.8 44.3 2.4 10.5 3.3 12.7 4.5 12.2 1.3 -0.4 1.4 -0.3 0.3 1 -0.7 0.9 -0.9 2.2 -0.4 3.2 0.4 1 0.8 2.1 0.8 2.5 0.1 0.3 0.4 1 0.9 1.4 0.4 0.4 0.7 2 0.7 3.6 0 3.7 3.2 10.9 4.6 10.4 0.7 -0.3 1 0.3 0.7 1.5 -0.4 1.2 0 1.9 1 1.9 0.8 0 1.7 -0.9 2 -2 0.3 -1.1 1 -2 1.6 -2 1.5 0 1.4 2.7 -0.1 3.3 -1 0.4 -0.9 0.8 0.2 1.6 2.3 1.7 4.3 0.9 5.1 -2.2 0.7 -2.4 0.4 -3 -1.9 -3.9 -1.5 -0.6 -3.3 -1 -4.1 -0.9 -0.7 0.1 -2 0 -2.8 -0.3 -1.2 -0.5 -1.2 -0.9 0.1 -3.3 0.8 -1.6 1.8 -4.5 2.1 -6.6 1.1 -6.6 6.9 -10 13.3 -7.7 4.2 1.5 5.4 0.6 8.2 -6.6 1.2 -3.1 1.9 -4.1 2 -2.7 0 3.9 2 3.6 2.1 -0.4 0.1 -3.4 0.2 -3.2 1 1.7 0.5 3 1.6 6.5 2.5 7.7 1.3 2 1.3 3 0 7.9 -1.6 5.9 -0.9 9.4 2.6 14.3 1.9 2.7 5.5 2.2 4.4 -0.5 -0.5 -1.3 -0.4 -1.4 0.7 -0.6 0.8 0.7 1.7 0.9 2 0.6 0.9 -0.9 -1.6 -4.4 -3 -4.4 -0.7 0 -1.3 -0.8 -1.3 -1.7 0 -0.9 -0.8 -2.5 -1.7 -3.6 -1.7 -1.8 -1.7 -1.9 0 -2.9 1 -0.5 2.2 -2 2.7 -3.3 1.5 -4 10 -8.2 10 -5 0 1.2 0.6 1.4 2.8 0.9 3.9 -1 3.8 -0.9 5.2 -6.1 1 -3.5 1.1 -4.8 0.2 -5.1 -2 -0.6 -1.3 -4.2 0.9 -5 1.1 -0.4 3 -2.6 4.2 -4.7 2.8 -4.9 6.7 -7 10.5 -5.7 2.1 0.7 2.8 1.6 3 4.2 0.3 2.8 -0.3 3.9 -3.7 7 -4.5 4.2 -5 5.9 -2.3 8.4 1.8 1.5 2 1.5 3.7 -0.4 3.7 -4.1 8.8 -1.7 8.8 4.1 0 3.8 -2.4 6.2 -6.2 6.1 -3.8 -0.1 -4 0.7 -4.8 13.8 -0.5 9.6 -0.4 10.7 1.2 11.4 1.1 0.4 2.3 0 3.2 -1.1 1.3 -1.6 1.3 -1.3 0.8 3 -0.7 4.9 0 5.6 3.5 3.7 1 -0.5 2.1 -2.1 2.4 -3.5 0.4 -1.4 1.3 -2.5 2.1 -2.5 0.8 0 3.8 -2.8 6.6 -6.2 2.9 -3.5 5.7 -6.2 6.2 -6 0.4 0.1 0.6 -0.2 0.3 -0.7 -0.4 -0.5 -0.2 -1.2 0.4 -1.6 1.7 -1 1.1 2.7 -1.5 8.9 -1.3 3.3 -2.2 6.2 -2 6.4 0.8 0.9 4.3 -4.3 4.9 -7.2 0.8 -3.9 2.4 -5.6 5 -5.6 1.7 0 3.2 -1.6 5.9 -6.2 5.2 -8.7 4.9 -10.5 -1.2 -7.3 -1.6 0.8 -3.2 1.1 -3.6 0.7 -0.5 -0.4 -0.5 -0.2 -0.1 0.5 0.3 0.6 0.2 1.4 -0.4 1.8 -1.5 0.9 -1.2 -9.5 0.3 -12.5 0.9 -1.7 2.6 -2.8 5.7 -3.6 8.1 -2 13 -2.5 13 -1.4 0 0.6 -0.4 0.9 -0.8 0.6 -0.5 -0.3 -0.7 3 -0.6 7.4 0.2 6.6 0 8.1 -1.6 9.5 -1.2 1.1 -2.8 1.5 -4.2 1.2 -2 -0.5 -2.8 0.1 -5.5 4.5 -2.9 4.8 -3 5.4 -1.6 7.5 0.9 1.3 1.5 4.3 1.5 6.8 -0.1 2.5 0.2 4.5 0.6 4.5 1.4 -0.1 8.2 -9.5 7.1 -9.9 -0.6 -0.2 0.2 -1.6 1.7 -3.2 1.5 -1.5 3.1 -2.6 3.6 -2.3 0.5 0.3 1.6 -0.4 2.6 -1.6 1.8 -2.2 1.8 -2.2 3.1 0.2 1.2 2.3 0.9 3 -3.2 8.9 -6.6 9.6 -13.1 20.9 -12.3 21.6 0.3 0.4 1.2 0.1 1.8 -0.5 2.1 -2.1 3.3 -1.3 5.6 3.3 2.3 4.7 4.1 5.6 6.2 3 1 -1.2 1 -1.5 -0.3 -1.5 -1.1 0 -1.7 -1.1 -1.9 -3.7 -0.3 -3.2 -0.7 -3.8 -2.5 -3.7 -1.3 0 -2.3 0 -2.3 -0.1 0 -0.3 14.8 -9.5 15.4 -9.5 0.3 0 0.6 0.7 0.6 1.5 0 1.1 1.3 1.3 6.3 1 3.4 -0.2 7.1 -0.7 8.2 -1.1 1.2 -0.4 0.4 0.7 -1.8 2.7 -3.4 3 -3.7 3.8 -3.1 6.7 0.8 3.9 1.4 3.9 5.4 0.6 1.7 -1.5 3 -2 2.8 -1.3 -0.2 0.9 0.5 1.4 2 1.3 3.3 -0.1 2.2 1.7 -3.4 5.3 -7.2 4.6 -13.5 10.4 -15.1 13.8 -1.7 3.8 -5.1 8.3 -8.5 11.3 -3.2 2.8 -3.6 4.2 -1 4.2 2.6 0 3.4 1.1 2.1 2.7 -0.9 1 -0.8 1.3 0.4 1.3 0.9 0 1.9 -1.6 2.6 -4.3 2.2 -8.8 12 -8.9 15.7 -0.1 1.7 4.1 0.5 7.9 -3.1 9.6 -2.1 1 -3.2 0.8 -6.6 -1.1 -2.2 -1.3 -4.6 -2 -5.3 -1.8 -2 0.8 -2.6 8.7 -0.6 8.8 0.8 0.1 0 0.6 -1.7 1.1 -1.8 0.6 -3.3 1.5 -3.3 1.9 0 1.1 6.3 1.1 11 0.1 2 -0.5 7.9 -0.3 13.5 0.4 5.5 0.6 9.3 1.2 8.6 1.3 -1.3 0.1 -18 6 -18.9 6.7 -0.2 0.1 0.6 1.2 1.7 2.3 1.2 1.2 2.1 3.4 2.1 5.1 0 2 0.9 4 2.6 5.7 2.4 2.4 2.8 2.5 9.7 1.7 4 -0.4 8.3 -0.7 9.7 -0.6 4.4 0.3 23.5 2 24.5 2.2 0.6 0.1 -0.1 0.6 -1.5 1.2 -2.5 1.1 -2.5 1.1 0.5 1.9 1.7 0.4 5.6 1.1 8.7 1.4 4.6 0.5 5.6 0.9 5.1 2.2 -0.4 1.1 -1.4 1.3 -3.7 0.8 -1.7 -0.3 -5.3 -0.9 -8 -1.2 -4.9 -0.6 -4.9 -0.6 -4.3 4.5 0.7 6.2 -0.5 7 -7.1 4.3 -2.6 -1.1 -8.5 -2.2 -13.2 -2.5 -4.7 -0.4 -9.7 -0.9 -11.2 -1.2 -2.3 -0.5 -2.8 -0.3 -2.8 1.3 0 1 -0.5 2.4 -1 2.9 -0.7 0.7 -0.6 2.2 0.5 4.7 0.8 2.1 1.3 4.8 0.9 6.1 -0.5 2.1 -0.1 2.4 4 3.5 2.5 0.6 5.6 1.1 7 1.1 4.8 0 12.6 2.1 12 3.2 -0.4 0.7 -0.2 0.8 0.4 0.4 0.7 -0.4 2 -0.2 2.9 0.4 2.7 1.7 -4.3 0.8 -16.4 -2 -9.8 -2.3 -10.4 -2.3 -13.8 -0.7 -5.3 2.5 -10.3 2.1 -17.3 -1.4 -5.3 -2.6 -6 -3.2 -4.8 -4.5 0.8 -0.7 1.7 -2.8 2.1 -4.5 0.8 -3.4 -0.1 -4.4 -4.4 -5.5 -2.4 -0.7 -4.5 1.1 -3.4 2.9 0.4 0.6 -0.4 0.7 -1.8 0.4 -1.3 -0.3 -4.5 -0.9 -7.1 -1.2 -4 -0.6 -4.8 -0.5 -4.8 0.9 0 1.1 0.9 1.6 3 1.6 1.7 0 3.3 0.6 3.6 1.4 0.3 0.8 1.9 1.8 3.5 2.1 3.7 0.8 4.5 2.2 1.9 3 -2.1 0.7 -2.1 0.7 0.4 3 4.5 4.2 4.8 11.3 0.3 10.1 -1.2 -0.3 -4.6 -0.9 -7.6 -1.2 -5.1 -0.7 -5.3 -0.6 -4.6 1.4 0.5 1.8 0.2 2.2 -1.6 2.2 -2.2 0 -2.2 0 0.2 2.6 3.5 3.7 12.3 8.5 21.4 11.5 6.2 2.1 8.3 3.2 9.3 5.3 1.6 3.1 0.9 4.6 -2.1 4.6 -3.3 0 -6.7 -2.8 -6.7 -5.4 0 -2.3 -0.7 -2.7 -11.7 -7.3 -0.8 -0.3 -1.3 0.3 -1.3 1.6 0 1.2 -0.5 2.1 -1.1 2.1 -0.5 0 -0.8 -0.4 -0.5 -0.8 0.6 -1.1 -11.4 0.3 -12.4 1.5 -0.5 0.4 -1 1.9 -1.2 3.3 -0.2 1.9 -1 2.6 -3 2.8 -1.6 0.2 -2.8 0.9 -2.8 1.6 0 0.8 -1.4 1.6 -3.1 2 -2.2 0.4 -3 1 -2.5 2.1 0.3 0.8 0.1 1.5 -0.3 1.5 -0.5 0 -1.1 -0.5 -1.3 -1.2 -0.3 -0.8 -1.5 -0.4 -3.7 1.1 -1.7 1.3 -3 2.8 -2.8 3.5 0.4 1.1 7.5 5.6 9.1 5.6 0.4 0 0.6 -0.6 0.3 -1.4 -0.4 -1 0.5 -1.6 2.8 -2 4 -0.8 5.1 -2.1 3.5 -4.1 -0.7 -0.8 -0.9 -1.5 -0.4 -1.4 0.5 0 3.6 3.1 6.9 6.7 4.7 5.2 5.6 6.7 4.2 7 -2.1 0.4 -2.2 2.4 -0.2 6.2 1 2 1.2 3.1 0.4 3.5 -0.7 0.5 -0.6 1.2 0.4 2.3 3.1 3.7 2.6 4.1 -1.5 1.2 -4.3 -3 -4.4 -3 -7.6 -1.5 -3.2 1.6 -3.4 1.6 -10.5 -1.9 -4 -2 -8 -3.6 -9 -3.6 -1.3 0 -1.7 -0.8 -1.7 -3.3 0 -3.3 0.1 -3.4 4.2 -3.3 4 0.1 4.3 -0.1 4.3 -2.6 0.1 -1.5 -0.1 -2.5 -0.4 -2.2 -0.2 0.2 -1.7 -0.8 -3.2 -2.2 -2.8 -2.7 -2.8 -2.7 -3.9 0 -0.5 1.5 -1 3.5 -1 4.4 0 1.5 -0.2 1.5 -1 0.2 -0.5 -0.8 -1 -1.1 -1 -0.5 0 0.5 -0.5 0.4 -1.2 -0.3 -0.7 -0.7 -2.2 -1.2 -3.4 -1.2 -2.1 0 -2.1 0 -0.3 3.8 1.6 3.1 4.6 23.9 3.6 24.7 -0.1 0.2 -1.2 0.5 -2.3 0.9 -1.8 0.5 -2.3 0.2 -2.8 -2 -0.5 -2 -1.1 -2.4 -2.4 -1.8 -0.9 0.4 -3.3 0.9 -5.4 1.2 -3.1 0.3 -3.9 0 -5.3 -2.2 -1.6 -2.4 -1.6 -3 -0.3 -7.4 1.6 -4.9 1.4 -7.2 -0.5 -5.3 -0.6 0.6 -1.9 1.1 -2.9 1.1 -1 0 -1.8 0.5 -1.8 1.1 0 0.5 -0.4 0.8 -1 0.4 -0.5 -0.3 -2.1 -0.3 -3.5 0.1 -1.8 0.4 -2.5 1.3 -2.5 3 0 1.3 -0.6 2.4 -1.2 2.5 -6.5 0.3 -12.8 2.2 -12.8 3.9 0 0.5 1.3 0.7 3 0.4 1.9 -0.4 3 -0.2 3 0.5 0 0.6 -1.7 1.1 -3.8 1.1 -3.3 0 -4.1 -0.4 -5.2 -2.7 -2.5 -5.7 -6 -18.8 -6 -23 0 -4.1 -0.2 -4.4 -2.2 -3.8 -3.1 0.9 -5.8 4.2 -5.8 7 0 4.4 -1.3 8.5 -2.6 8.5 -2.1 0 -2 11.6 0.1 12.4 0.8 0.3 1.5 1.3 1.4 2.3 0 1.1 -0.3 1.3 -0.6 0.6 -1.1 -2.9 -2.1 -0.9 -2.5 5.2 -0.5 7.5 -3.1 11.2 -8.9 12.4 -3.4 0.7 -3.4 0.7 -3.4 13.1 -0.1 7.9 -0.5 13.2 -1.3 14.5 -1 1.6 -1.2 -0.9 -1.1 -13.2z m8.9 -40.8 c0 -0.7 0.3 -2 0.6 -2.9 0.4 -1.1 0.1 -1.6 -1 -1.6 -0.9 0 -1.6 0.6 -1.6 1.3 0 0.6 -0.3 2.2 -0.6 3.5 -0.5 1.8 -0.3 2.1 1 1.6 0.9 -0.3 1.6 -1.2 1.6 -1.9z m105.8 -68 c-0.4 -1.9 -0.1 -2.5 1.3 -2.5 2.4 0 3.3 -1.6 1.3 -2.4 -2.5 -1 -9.4 -0.7 -9.4 0.4 0 0.6 0.4 1 1 1 0.5 0 1.6 1.4 2.5 3 1.9 3.7 3.9 4 3.3 0.5z m-190.8 -2.8 c0 -0.7 -1.5 -2.7 -3.3 -4.5 -2.4 -2.4 -3.6 -2.9 -4.4 -2.1 -1.6 1.6 -0.5 3.9 1.8 3.9 1 0 2.3 0.9 2.9 2 1.2 2.3 3 2.7 3 0.7z m-17.1 -4.6 c0.7 -0.5 1.2 -1.3 1 -1.9 -0.3 -0.7 -1.4 -0.3 -2.9 0.8 -2.5 2 -1 2.9 1.9 1.1z m8.9 -8.1 c0.2 -0.6 0.8 -0.8 1.3 -0.4 0.5 0.3 0.9 0 0.9 -0.5 0 -1.1 -3.5 -1 -4.6 0.2 -0.4 0.4 -1.6 0.7 -2.6 0.7 -1 0 -1.8 0.5 -1.8 1.1 0 1.4 6.3 0.3 6.8 -1.1z m231.2 -4 c0 -0.5 -1.6 -1 -3.6 -1 -2.1 0 -3.3 0.4 -2.9 1 0.3 0.6 1.9 1 3.6 1 1.6 0 2.9 -0.4 2.9 -1z m38 -2 c1.8 -1.8 2.8 -5 1.5 -5 -0.2 0 -3 0.7 -6.2 1.5 -3.1 0.8 -7.5 1.5 -9.6 1.5 -2.3 0 -3.6 0.4 -3.2 1 0.3 0.6 3.3 1 6.5 1 3.2 0 6.2 0.5 6.5 1 0.9 1.5 2.3 1.2 4.5 -1z m-21 -1.9 c0 -0.5 -1.6 -1.5 -3.6 -2.1 -3 -1 -3.8 -1 -4.5 0.1 -0.6 1 -0.2 1.6 1.4 2.1 3.4 0.9 6.7 0.9 6.7 -0.1z m-266.2 -5.2 c0.2 -0.5 1 -0.9 1.8 -0.9 0.9 0 1.2 0.5 0.8 1.2 -0.4 0.7 -0.3 0.8 0.4 0.4 0.9 -0.5 0.9 -1.3 0.1 -2.8 -0.9 -1.6 -1.7 -1.9 -4.1 -1.4 -2.4 0.5 -2.9 0.3 -2.4 -0.9 0.6 -1.8 -1 -2 -2 -0.3 -0.4 0.6 -0.2 1.4 0.4 1.6 2.3 0.7 1.2 3.8 -1.8 4.9 -1.6 0.6 -3 1.6 -3 2.2 0 1.1 9.3 -2.7 9.8 -4z m22.6 -3.9 c1.3 -1.2 -0.1 -4 -1.9 -4 -0.9 0 -1.8 0.7 -2.1 1.5 -0.4 0.8 -1.6 1.5 -2.8 1.5 -1.8 0 -1.5 -0.4 1.4 -2.3 2.7 -1.7 3.1 -2.3 1.7 -2.5 -1 -0.2 -2.4 0.2 -3.2 0.8 -0.9 0.7 -3 0.9 -5.9 0.5 -3.1 -0.5 -4.6 -0.4 -4.6 0.4 0 0.6 0.6 1.1 1.3 1.2 0.6 0 3.5 1.1 6.2 2.4 4.7 2.3 7.8 2.4 9.9 0.5z m210.9 -28.1 c-0.6 -0.6 -1.7 -0.8 -2.4 -0.3 -0.9 0.5 -0.8 0.9 0.7 1.4 2.3 0.9 3.1 0.3 1.7 -1.1z m-237.4 -12.8 c0 -0.9 -0.3 -1.1 -0.5 -0.4 -0.3 0.7 -1.2 0.9 -2 0.6 -1.6 -0.6 -1.7 -0.2 -0.8 2.1 0.5 1.3 0.9 1.4 2 0.5 0.8 -0.6 1.4 -1.9 1.3 -2.8z m9.3 -9.3 c-0.6 -0.6 -1.5 -0.8 -1.9 -0.4 -0.4 0.4 -0.1 1.1 0.7 1.6 1.9 1.2 2.7 0.3 1.2 -1.2z m15.6 -5.8 c-1.5 -2.3 -2.8 -2.6 -2.8 -0.7 0 1.7 1 2.7 2.7 2.7 1.1 0 1.1 -0.4 0.1 -2z m-0.3 -17.1 c0 -0.7 -0.8 -1.5 -1.7 -1.7 -1.8 -0.3 -2.5 1.8 -1.1 3.2 1 1 2.8 0.1 2.8 -1.5z m22.6 -0.7 c-1.2 -2.3 -4.1 -4.8 -4.1 -3.5 0 0.5 0.7 1.9 1.6 3.1 1.9 2.7 3.9 3 2.5 0.4z m154.8 -4.2 c0.1 -1.2 -0.2 -1.1 -1.5 0.2 -1.1 1.1 -1.4 2.3 -0.9 3.5 0.7 1.7 0.8 1.7 1.5 -0.2 0.5 -1.1 0.9 -2.7 0.9 -3.5z m-175.5 1.4 c0.3 -0.9 0.6 -2 0.6 -2.5 0 -1 -3.7 -3.4 -6.7 -4.4 -1.9 -0.5 -2.3 -0.2 -2.3 1.5 0 1.7 0.4 1.9 2.6 1.4 2.5 -0.6 2.6 -0.5 2.2 1.9 -0.7 3.4 2.4 5.2 3.6 2.1z m183.3 0.6 c1.6 0 5.3 -4 5.3 -5.7 0 -1.8 -2 -1.6 -4.2 0.3 -1.6 1.6 -1.8 1.6 -2.4 0 -1 -2.6 -3.1 -1.9 -4.3 1.5 -1.3 3.8 -0.6 5.3 2.3 4.5 1.1 -0.3 2.6 -0.6 3.3 -0.6z m-126.3 -8.2 c-1.6 -5.5 -4.5 -9.8 -6.4 -9.8 -1.1 0 -2 0.4 -2 0.9 0 0.8 3.3 5.4 5.7 7.9 0.7 0.7 1.3 1.8 1.3 2.3 0 0.5 0.5 0.9 1.1 0.9 0.6 0 0.8 -0.9 0.3 -2.2z m134.9 -1.2 c0.8 -2 -0.3 -5.6 -1.7 -5.6 -2.1 0 -2.5 1.1 -1.4 4.1 1.1 3.1 2.3 3.7 3.1 1.5z m-112.2 -6.5 c-0.6 -1.1 -1.1 -3.2 -1.1 -4.7 0 -3.6 -4.2 -18.4 -5.2 -18.4 -0.5 0 -0.8 0.9 -0.8 1.9 0 1.3 -0.5 1.8 -1.7 1.5 -1 -0.2 -2.4 0 -3.1 0.4 -1.1 0.7 -0.4 2.8 2.9 9.7 4.2 8.5 9 14.7 9.7 12.6 0.2 -0.5 -0.1 -1.9 -0.7 -3z m72 -22.3 c1 -1.8 0.9 -2 -0.6 -1.5 -0.9 0.4 -1.9 0.7 -2.1 0.7 -0.2 0 -0.4 0.7 -0.4 1.5 0 2.2 1.8 1.8 3.1 -0.7z m2.9 -6.8 c0 -1.1 -0.7 -2 -1.5 -2 -1.5 0 -2.1 2.1 -0.8 3.3 1.2 1.3 2.3 0.7 2.3 -1.3z m-11 -0.5 c0 -0.9 1.1 -3.2 2.4 -5.3 1.3 -2 2.7 -5.2 3.1 -7 0.6 -2.9 0.5 -3.3 -1.2 -3 -1.3 0.2 -1.9 1.4 -2.1 4.1 -0.3 2.9 -0.7 3.7 -2.3 3.7 -1 0 -1.9 0.6 -1.9 1.4 0 0.7 -0.3 2.8 -0.6 4.5 -0.5 2.4 -0.3 3.1 1 3.1 0.9 0 1.6 -0.7 1.6 -1.5z"/>
  <path d="M196.5 398.5 c1.6 -4.5 1.7 -5.5 0.5 -5.5 -0.9 0 -1.1 -1.3 -0.6 -4.7 0.5 -3.9 1.5 -5.6 5.3 -9.5 2.5 -2.6 5.1 -4.4 5.6 -4.1 0.6 0.3 0.7 0.1 0.4 -0.4 -0.4 -0.6 0.3 -1.9 1.4 -2.9 2.1 -1.9 2.1 -1.9 0.5 2 -2 4.7 -1.9 4.6 -0.1 4.6 2.4 0 5.5 3.8 5.5 6.6 0 7.1 -5.6 12.1 -12.1 10.9 -3 -0.5 -3.6 -0.2 -5.2 2.2 -1.1 1.6 -1.6 2 -1.2 0.8z"/>
  <path d="M321 389.8 c-1.6 -6.9 -2.8 -9.1 -4.6 -8.4 -1.9 0.7 -1.8 -0.8 0.2 -2.5 1.1 -0.9 1.4 -2.2 0.9 -4.8 -1.5 -8.8 -1.4 -9.4 0.5 -4.2 1.1 2.9 1.7 5.8 1.4 6.2 -0.3 0.5 0 0.8 0.8 0.7 0.9 -0.2 1.3 0.9 1.4 3.7 0 2.2 0.4 6.4 0.8 9.3 0.4 2.8 0.6 5.2 0.3 5.2 -0.3 0 -1.1 -2.4 -1.7 -5.2z"/>
  <path d="M415.6 393.9 c-3.8 -0.4 -8.1 -1.3 -9.7 -1.9 -3.2 -1.4 -3.6 -2.7 -4.2 -15.2 -0.2 -4.5 -1 -8.5 -1.8 -9.5 -1.2 -1.6 -1.1 -1.6 0.8 0.1 2.3 1.9 2.7 1.9 10.1 -0.9 4.1 -1.4 4.6 -1.4 8.6 0.4 9.6 4.2 12.4 18 5.3 25.4 -2 2.1 -2.8 2.2 -9.1 1.6z"/>
  <path d="M385.3 383.3 c-1.9 -4 -1.6 -5.2 1.4 -5.9 3.5 -0.9 7.9 1.5 7.5 4.2 -1 5.1 -6.8 6.2 -8.9 1.7z"/>
  <path d="M308.2 381.4 c-3.6 -2.5 -2.9 -12.4 0.9 -12.4 3.9 0 6.3 7.5 3.9 12.1 -1.3 2.3 -1.9 2.4 -4.8 0.3z"/>
  <path d="M195.1 376.8 c-1.3 -3.7 -1.4 -7.1 -0.2 -6.4 0.4 0.3 2.2 0.1 4 -0.4 3.7 -1 3.8 -0.4 1.1 5 -2.7 5.2 -3.6 5.6 -4.9 1.8z"/>
  <path d="M449.5 372.8 c-5 -5.3 -5 -5.3 0.3 -0.3 4.8 4.6 5.7 5.5 4.9 5.5 -0.1 0 -2.5 -2.4 -5.2 -5.2z"/>
  <path d="M120.1 373.6 c-1.7 -2 -1.7 -7.6 0 -8.7 1.6 -1 8 -1.2 10.3 -0.3 2.4 0.9 1.9 5.2 -0.9 7.9 -2.7 2.8 -7.6 3.3 -9.4 1.1z"/>
  <path d="M148.2 366.8 c-1.9 -1.9 -1.4 -5.3 1.3 -7.8 2 -1.9 2.7 -2.1 3.9 -1.1 2.2 1.9 2.8 4.5 1.7 7.5 -1.1 2.8 -4.7 3.6 -6.9 1.4z"/>
  <path d="M447.3 362.9 c-3.5 -1.7 -3.9 -2.3 -3.5 -4.8 0.3 -2.3 1 -3 3.4 -3.5 6.1 -1.2 10.2 4.9 5.9 8.6 -1.8 1.5 -2.2 1.5 -5.8 -0.3z"/>
  <path d="M195.3 363.2 c-1.3 -0.2 -2.3 -1 -2.3 -1.8 0 -1.9 2.8 -3 4.2 -1.6 1.6 1.6 0.5 3.7 -1.9 3.4z"/>
  <path d="M198.2 358.4 c-0.6 -0.7 -1.6 -1.4 -2.2 -1.6 -0.6 -0.2 -0.8 -1.1 -0.4 -2.1 0.4 -1.2 1.3 -1.6 2.8 -1.1 3.4 1 6.8 3.4 6.4 4.6 -0.5 1.5 -5.2 1.6 -6.6 0.2z"/>
  <path d="M436.9 357 c-2.4 -2.1 -2.4 -2.1 0.9 -0.5 3.1 1.5 4.1 2.5 2.3 2.5 -0.5 0 -1.9 -0.9 -3.2 -2z"/>
  <path d="M43 355 c3.3 -2.6 5.2 -2.5 2.1 0 -1.3 1.1 -2.8 2 -3.5 2 -0.6 0 0 -0.9 1.4 -2z"/>
  <path d="M301 356.2 c0 -1.7 2.6 -3.2 5.6 -3.2 3.8 0 5.3 2.5 2.1 3.4 -3.2 0.8 -7.7 0.7 -7.7 -0.2z"/>
  <path d="M134.8 349.3 c-2.2 -0.5 -2.2 -1.6 -0.3 -5.3 1.1 -2.1 2 -2.7 3.5 -2.3 1.3 0.4 2.6 -0.1 3.4 -1.2 1.9 -2.7 4 -1 2.2 1.8 -0.7 1.2 -1.6 3.4 -2 5 -0.6 2.7 -2.3 3.2 -6.8 2z"/>
  <path d="M406.3 341.1 c-0.6 -0.3 -1.2 -2.5 -1.4 -4.8 -0.4 -4.1 -0.4 -4.1 2.1 -2.8 1.4 0.7 3.9 2.8 5.5 4.6 1.7 1.7 2.5 2.9 1.9 2.6 -0.6 -0.4 -2.5 -0.3 -4.1 0.2 -1.7 0.5 -3.5 0.6 -4 0.2z"/>
  <path d="M463.6 340.4 c-0.3 -0.9 -0.3 -2.1 0.1 -2.6 0.3 -0.7 0.1 -0.8 -0.5 -0.4 -0.7 0.4 -1.2 0.2 -1.2 -0.3 0 -0.6 1.6 -1.1 3.5 -1.1 3.6 0 4.2 1 2.9 4.4 -0.8 2.1 -4 2.1 -4.8 0z"/>
  <path d="M107 338.8 c0 -2.3 1.1 -4.8 2.1 -4.8 1.4 0 1.1 2.4 -0.6 4.6 -1.2 1.6 -1.4 1.7 -1.5 0.2z"/>
  <path d="M393.6 339.1 c-1 -1.6 0.5 -4.1 2.6 -4.1 1.4 0 1.9 0.6 1.6 2.2 -0.3 2.4 -3.2 3.6 -4.2 1.9z"/>
  <path d="M106.2 330.9 c0.6 -1.8 4.6 -3.1 5.4 -1.6 0.4 0.7 0.3 0.9 -0.1 0.4 -0.5 -0.4 -1.9 0 -3.3 0.9 -1.6 1.1 -2.3 1.2 -2 0.3z"/>
  <path d="M149.6 331 c-1.5 -0.5 -1.6 -0.9 -0.7 -1.4 0.7 -0.5 1.8 -0.3 2.4 0.3 1.4 1.4 0.6 2 -1.7 1.1z"/>
  <path d="M126 330 c0 -2.2 1.6 -4.3 2.8 -3.9 0.7 0.3 0.3 1.4 -0.8 2.9 -1.3 1.7 -2 2 -2 1z"/>
  <path d="M171.3 327.9 c0.9 -0.5 1.7 -1.7 1.7 -2.4 0 -0.8 0.6 -1.5 1.3 -1.5 0.6 0 1.9 -1.5 2.7 -3.3 1.1 -2.3 2.2 -3.2 4 -3.3 1.4 -0.1 3.4 -0.5 4.5 -1 2.8 -1.2 -6.4 9.4 -9.7 11.2 -1.5 0.8 -3.5 1.4 -4.5 1.4 -1.7 -0.1 -1.7 -0.1 0 -1.1z"/>
  <path d="M70.5 326 c-0.6 -1 4.3 -3.5 5.2 -2.6 0.5 0.5 -2.6 3.6 -3.7 3.6 -0.5 0 -1.2 -0.5 -1.5 -1z"/>
  <path d="M144.4 324.1 c1.5 -1.6 3.7 -3.1 4.8 -3.4 3.4 -0.9 1.4 1.6 -3.2 4 -4.4 2.4 -4.4 2.4 -1.6 -0.6z"/>
  <path d="M131.4 319.5 c0.1 -0.8 0.7 -2 1.4 -2.7 0.8 -0.8 0.9 -0.5 0.5 1.1 -0.6 2.5 -2.2 3.8 -1.9 1.6z"/>
  <path d="M137 318.4 c-1.8 -1 -2 -1.4 -0.8 -1.4 0.9 0 3.1 -1.5 4.9 -3.2 1.8 -1.8 2.9 -2.7 2.5 -2 -0.5 0.8 -0.1 2.1 1 3.3 1 1.1 1.2 1.9 0.6 1.9 -0.7 0 -1.2 -0.4 -1.2 -1 0 -0.5 -0.7 -1 -1.5 -1 -0.9 0 -1.5 0.9 -1.5 2.5 0 2.8 -0.4 2.9 -4 0.9z"/>
  <path d="M36.7 316.3 c-1.3 -1.2 -0.7 -2.3 1.3 -2.3 1.1 0 2 0.7 2 1.5 0 1.5 -2.1 2.1 -3.3 0.8z"/>
  <path d="M147.8 314.5 c0.5 -2.9 0.8 -3.1 1.5 -1.1 0.3 0.8 0 1.9 -0.7 2.5 -1 0.9 -1.2 0.6 -0.8 -1.4z"/>
  <path d="M383 313.3 c-2.5 -2.5 -2.5 -2.5 0.7 -0.9 3.5 1.7 5.2 3.6 3.1 3.5 -0.7 0 -2.4 -1.2 -3.8 -2.6z"/>
  <path d="M170.2 313 c-1.2 -0.5 -2.4 -1.5 -2.7 -2.2 -0.9 -2.8 -0.9 -7.3 0 -7.4 1.9 -0.2 5 -1.8 8.3 -4.2 3.2 -2.4 3.2 -2.4 3.2 0.6 0 1.8 0.6 3.2 1.5 3.6 1.2 0.4 1.3 1 0.6 2.4 -0.7 1.3 -0.6 2.3 0.2 3.1 0.9 1 0.8 1.1 -0.8 0.5 -1.1 -0.4 -1.7 -0.4 -1.3 0 1 1.2 -2.4 4.6 -4.7 4.5 -1.1 0 -3 -0.4 -4.3 -0.9z"/>
  <path d="M182.5 299.2 c-1.1 -1.1 -0.4 -2 2.4 -3.2 3.2 -1.3 7.4 -0.5 6.8 1.3 -0.4 1.2 -8.3 2.8 -9.2 1.9z"/>
  <path d="M25.2 297.3 c0.2 -1 1 -1.8 1.8 -1.8 2.2 0 1.8 2.9 -0.3 3.3 -1.4 0.3 -1.8 -0.1 -1.5 -1.5z"/>
  <path d="M50 298.4 c0 -1.8 2.3 -4.3 5 -5.4 2.3 -0.9 2.9 -1.7 2.4 -2.9 -0.4 -0.9 -0.9 -3.2 -1.2 -5.2 -0.7 -6.1 4 -8.7 9.8 -5.4 2.8 1.6 7.8 1.9 9.8 0.7 1 -0.7 0.8 -1.5 -0.9 -3.6 -2 -2.6 -2 -2.7 -0.3 -5.4 2.1 -3.1 2.4 -5.6 1.3 -9.4 -0.6 -2.3 -0.3 -2.8 1.9 -3.7 4 -1.6 6.9 -1 8.3 1.7 1.1 1.9 1.1 2.5 -0.1 3.2 -1.1 0.7 -1.1 1.1 -0.1 2.4 1.1 1.3 1.1 1.9 0.1 3.1 -1 1.1 -0.9 2.4 0.4 6.1 0.9 2.6 1.3 5 1 5.5 -0.2 0.4 -2 1.1 -3.9 1.5 -2.7 0.5 -3.6 1.3 -4.5 3.9 -1.5 4.7 -8 10.2 -12.7 11 -2.1 0.3 -4.5 0.7 -5.4 0.9 -0.9 0.2 -1.6 -0.3 -1.6 -1 0 -0.9 0.9 -1.1 2.7 -0.8 2.8 0.6 5.7 -1.7 4.5 -3.6 -0.9 -1.5 -2.5 -1.2 -1.9 0.4 0.3 0.7 -0.2 1.6 -1 1.9 -1.1 0.4 -1.3 0.1 -0.9 -1.1 0.6 -1.4 0.4 -1.5 -0.9 -0.4 -0.8 0.7 -2.3 0.9 -3.3 0.6 -1.3 -0.5 -1.6 -0.2 -1.3 1.2 0.2 1.3 -0.5 2.3 -2.5 3.2 -3.2 1.3 -4.7 1.5 -4.7 0.6z m22.2 -5.8 c0.3 0.2 1.1 -0.4 1.9 -1.3 1.2 -1.6 1.2 -1.7 -0.1 -0.8 -0.9 0.6 -0.4 0 1 -1.2 1.4 -1.3 1.9 -2.3 1.3 -2.3 -0.7 0 -1.3 -0.7 -1.3 -1.5 0 -0.8 -0.8 -1.5 -1.8 -1.5 -2.5 0 -6.5 3.9 -5.8 5.7 0.3 0.8 0.6 2.1 0.6 2.9 0 1.1 0.4 1.2 1.9 0.5 1 -0.6 2.1 -0.8 2.3 -0.5z"/>
  <path d="M115 298.1 c0 -1 3.5 -2.2 7.2 -2.4 2.1 -0.2 2.4 0.1 1.5 0.9 -1.5 1.4 -8.7 2.6 -8.7 1.5z"/>
  <path d="M414.1 296.7 c-1.4 -0.6 -2.7 -1.8 -2.9 -2.6 -0.4 -1.1 0.3 -1.3 3.3 -0.8 3.8 0.6 5.9 2.3 4.9 3.9 -0.7 1.1 -2.5 1 -5.3 -0.5z"/>
  <path d="M131.7 291.6 c-0.4 -1 -0.3 -2.5 0.3 -3.4 0.6 -1.1 0.9 -1.2 1 -0.4 0 0.7 0.5 1 1 0.7 0.6 -0.4 0.8 -1 0.5 -1.5 -0.3 -0.5 -0.1 -1.1 0.5 -1.5 1.7 -1.1 1.1 3.2 -0.8 5.5 -1.7 2.1 -1.9 2.1 -2.5 0.6z"/>
  <path d="M116 286.3 c0 -3 0.1 -3.1 2.5 -2 1.3 0.7 1.9 1.4 1.2 1.6 -0.7 0.2 -1.8 1 -2.4 1.9 -1.1 1.4 -1.3 1.1 -1.3 -1.5z"/>
  <path d="M105.7 280.6 c-0.4 -1 -0.7 -2.5 -0.6 -3.4 0 -1.1 0.4 -0.9 1 0.7 0.5 1.3 0.8 2.9 0.6 3.5 -0.2 0.5 -0.6 0.2 -1 -0.8z"/>
  <path d="M112.5 280 c0.3 -0.5 2 -1 3.6 -1 1.8 0 2.8 0.4 2.4 1 -0.3 0.6 -2 1 -3.6 1 -1.8 0 -2.8 -0.4 -2.4 -1z"/>
  <path d="M470.7 273.4 c-1.4 -1.4 -0.7 -3.5 1.1 -3.2 0.9 0.2 1.7 1 1.7 1.7 0 1.6 -1.8 2.5 -2.8 1.5z"/>
  <path d="M24.8 265.3 c1.2 -0.2 3 -0.2 4 0 0.9 0.3 -0.1 0.5 -2.3 0.4 -2.2 0 -3 -0.2 -1.7 -0.4z"/>
  <path d="M107 264.1 c0 -1.1 0.5 -2.3 1 -2.6 0.6 -0.3 1 0.3 1 1.4 0 1.1 -0.4 2.3 -1 2.6 -0.5 0.3 -1 -0.3 -1 -1.4z"/>
  <path d="M43 264 c2.5 -0.8 11.7 -1.4 10.9 -0.6 -0.2 0.2 -3.3 0.6 -6.9 0.9 -4.1 0.4 -5.6 0.3 -4 -0.3z"/>
  <path d="M92.7 264.2 c-0.3 -0.4 -0.3 -2 0 -3.5 0.5 -2.6 0.8 -2.7 4.2 -2.1 3.2 0.6 3.5 0.5 2.3 -0.9 -1.8 -2.2 0.3 -3.2 2.9 -1.3 2.1 1.4 2.1 1.4 0 2.5 -1.2 0.7 -2.1 1.8 -2.1 2.6 0 1.8 -1.2 1.9 -2.8 0.3 -0.8 -0.8 -1.5 -0.8 -2.6 0.2 -0.9 0.7 -1.3 1.6 -1 2.1 0.3 0.5 0.3 0.9 0 0.9 -0.3 0 -0.7 -0.3 -0.9 -0.8z"/>
  <path d="M107 256.5 c0 -0.8 1.1 -1.7 2.5 -2.1 3.8 -0.9 4.1 0.2 0.6 2.1 -2.7 1.4 -3.1 1.4 -3.1 0z"/>
  <path d="M84.4 250.3 c-1.8 -0.3 -2.1 -0.9 -1.5 -3 1.5 -5.7 7.6 -5.1 6.9 0.6 -0.3 2.6 -1.6 3.2 -5.4 2.4z"/>
  <path d="M62 244.9 c0 -1.1 0.5 -1.7 1 -1.4 0.6 0.3 1 1.3 1 2.1 0 0.8 -0.4 1.4 -1 1.4 -0.5 0 -1 -0.9 -1 -2.1z"/>
  <path d="M40.5 242.7 c-1.9 -6.3 -1.7 -6.7 2.4 -6.7 3.2 0 4.1 0.4 4.7 2.3 0.5 1.2 0.7 2.5 0.6 2.8 0 0.3 1 0.4 2.4 0.1 1.8 -0.3 2.3 -0.1 1.9 0.9 -0.7 1.8 -11.5 2.3 -12 0.6z"/>
  <path d="M69.3 241 c-1.3 -0.5 -2.3 -1.4 -2.3 -2 0 -0.6 -1 -1.5 -2.2 -2 -1.3 -0.5 -1.7 -0.9 -0.8 -0.9 2 -0.1 8 3.6 8 4.9 0 0.5 -0.1 1 -0.2 0.9 -0.2 0 -1.3 -0.4 -2.5 -0.9z"/>
  <path d="M105.1 232 c-0.1 -5.4 0.9 -6.2 4 -3.4 1.7 1.5 2 1.4 5 -1.7 2.3 -2.5 2.8 -2.8 1.9 -1.1 -0.6 1.3 -1 2.6 -0.7 2.8 0.7 0.7 -7.2 8.4 -8.7 8.4 -0.9 0 -1.3 -1.6 -1.5 -5z"/>
  <path d="M90.7 233.9 c0.6 -0.6 0.8 -2.9 0.6 -5.2 -0.5 -4 -0.3 -4.3 3 -5.8 3.3 -1.5 3.7 -1.4 5.8 0.2 1.7 1.3 2 1.9 0.9 1.9 -0.9 0 -2.1 -0.5 -2.8 -1.2 -0.9 -0.9 -1.5 -0.9 -2.4 0 -0.9 0.9 -0.9 1.2 0.1 1.2 0.7 0 0.9 0.5 0.6 1.1 -0.4 0.6 -1.3 0.8 -2 0.5 -0.7 -0.2 -1.6 0.2 -1.9 1 -1 2.7 -0.7 3.6 1.3 2.9 1.2 -0.4 2.1 0 2.5 1.1 0.5 1.3 0.2 1.5 -1.4 1.1 -1.1 -0.3 -2.3 0 -2.7 0.5 -0.4 0.7 -0.1 0.8 0.7 0.3 0.9 -0.5 1.1 -0.4 0.6 0.3 -0.4 0.7 -1.5 1.2 -2.4 1.2 -1.1 0 -1.3 -0.3 -0.5 -1.1z"/>
  <path d="M417.9 234.3 c-1.5 -0.4 -1.5 -0.7 0 -3.8 1.5 -3.2 1.9 -3.5 5.5 -3.3 5.3 0.4 7.1 3.1 3.7 5.9 -2.2 1.8 -5.5 2.2 -9.2 1.2z"/>
  <path d="M458 233.5 c-1.4 -0.8 -3.5 -1.4 -4.7 -1.5 -1.6 0 -2 -0.5 -1.6 -1.9 0.3 -1.2 -0.3 -2.4 -1.6 -3.3 -2 -1.4 -1.9 -1.5 2.4 -5.1 4 -3.4 4.8 -3.7 8.6 -3.1 3.4 0.6 4.4 1.2 5.5 3.9 1.5 3.7 0.9 7.1 -1.9 10.3 -2.4 2.6 -3.3 2.7 -6.7 0.7z"/>
  <path d="M119.8 225 c0.6 -0.8 1.2 -2.5 1.2 -3.8 0 -1.7 0.5 -2.3 1.7 -2 2.7 0.5 2.4 2.2 -1 4.7 -1.8 1.4 -2.6 1.8 -1.9 1.1z"/>
  <path d="M56.5 224.2 c-3.3 -0.7 -4.2 -2.2 -1.3 -2.2 1.5 0 3 0.5 3.3 1.1 0.9 1.4 0.4 1.6 -2 1.1z"/>
  <path d="M434.5 221 c-1.4 -2.7 -1.4 -3.4 -0.3 -4.1 0.7 -0.5 1.8 -0.7 2.3 -0.6 1.4 0.5 1.8 4.3 0.7 6.3 -0.8 1.5 -1.2 1.3 -2.7 -1.6z"/>
  <path d="M88 219.8 c-3.5 -1.1 -3.5 -1.1 -0.7 -2 3.3 -1.2 8 -0.2 7.4 1.5 -0.5 1.6 -2.5 1.8 -6.7 0.5z"/>
  <path d="M414 217 c0 -0.6 -0.7 -1 -1.5 -1 -2 0 -1.9 -0.6 1.2 -7.3 3 -6.2 5.1 -7.5 9.6 -5.8 3.1 1.2 6.7 6.5 6.7 9.8 0 1.3 -0.9 2.7 -2.2 3.4 -2.8 1.5 -13.8 2.2 -13.8 0.9z"/>
  <path d="M91.5 214 c-1.1 -0.5 -1.6 -0.9 -1.2 -0.9 0.4 -0.1 0.3 -1 -0.4 -2.2 -0.8 -1.6 -0.8 -2.4 0.2 -3.3 0.9 -0.8 1 -0.8 0.4 0.2 -0.6 1.1 -0.3 1.1 1.3 0.1 1.6 -1 2.6 -1 4.7 -0.1 6.8 3.1 1.9 9.2 -5 6.2z"/>
  <path d="M38 209.1 c0 -0.5 0.6 -1.1 1.3 -1.4 1.8 -0.6 4.8 0.4 4.1 1.4 -0.7 1.2 -5.4 1.2 -5.4 0z"/>
  <path d="M46.2 206.4 c-2.3 -2.2 -2.3 -2.2 -0.2 -1.7 1.2 0.3 2.4 1.2 2.7 2 0.9 2.2 0 2.1 -2.5 -0.3z"/>
  <path d="M103 193.5 c0 -0.4 0.5 -1.5 1.1 -2.6 1.3 -2.4 0.4 -5.5 -1.9 -6.4 -2.9 -1.2 -9.2 -1.7 -9.2 -0.7 0 0.6 -0.7 1.2 -1.4 1.5 -1 0.4 -1.3 0.1 -1 -0.8 0.9 -2.1 6.1 -3.6 9 -2.5 1.4 0.6 3 1 3.5 1 1.6 0 1 -3.9 -0.8 -4.9 -1.6 -0.9 -1.6 -1 0.3 -1.1 1.2 0 2.5 -0.7 2.8 -1.6 0.9 -2.2 8.6 -1 14.4 2.2 2.3 1.3 5.4 2.4 6.7 2.4 1.4 0 2.5 0.5 2.5 1 0 0.6 -0.5 1 -1.1 1 -0.5 0 -0.7 0.5 -0.4 1.1 0.4 0.6 1.3 0.8 1.9 0.6 0.7 -0.3 1.3 0.1 1.3 0.8 0 0.9 -1 1 -3.6 0.4 -5.1 -1.2 -5.1 -1.2 -5.1 1.9 0 1.5 -0.4 3.2 -0.8 3.8 -0.8 1.3 -10.3 1.2 -13.9 -0.1 -1.8 -0.5 -2.3 -0.4 -2.3 0.8 0 0.9 -0.4 1.9 -1 2.2 -0.5 0.3 -1 0.3 -1 0z"/>
  <path d="M87 174.4 c0 -1.6 1.7 -3.7 2.7 -3.3 0.6 0.2 0.2 1.3 -0.8 2.3 -1.1 1.1 -1.9 1.5 -1.9 1z"/>
  <path d="M37.3 172.9 c-2.2 -0.8 -3.3 -3.9 -1.5 -3.9 1.1 0 4.7 3.9 4.1 4.4 -0.2 0.2 -1.4 0 -2.6 -0.5z"/>
  <path d="M76.5 167.1 c-5.1 -2 -6.9 -3.1 -6.7 -4.3 0.1 -1 -0.8 -2.2 -2 -2.9 -2.9 -1.4 -8.8 -7 -8.8 -8.2 0 -0.5 0.7 -0.4 1.5 0.3 0.9 0.7 2.6 1 4.2 0.6 2.6 -0.6 2.6 -0.5 1 0.8 -1.7 1.3 -1.7 1.5 0.5 3 2.9 2.1 3.2 2.1 6.5 -1 2.5 -2.3 2.6 -2.7 1 -3.5 -0.9 -0.6 -1.7 -1.8 -1.6 -2.7 0 -1.4 0.2 -1.3 0.9 0.3 0.9 2 0.9 2 1 0 0.1 -1.6 0.5 -1.3 1.7 1.3 0.9 1.7 2.2 3.2 2.8 3.2 2.3 0 4.5 2.6 4.9 5.9 0.4 3.3 1.9 5.1 4.4 5.1 0.6 0 1.2 -0.6 1.2 -1.4 0 -0.8 1 -2.7 2.3 -4.2 2.2 -2.5 2.4 -2.6 4.1 -0.9 0.9 1 1.5 2.4 1.2 3.2 -0.3 0.8 -0.1 1.1 0.4 0.8 0.6 -0.3 1 -0.2 1 0.4 0 0.5 -3.3 1.5 -7.2 2.1 -10.4 1.7 -10.8 1.9 -7.8 3.5 3.8 2.1 1.3 1.6 -6.5 -1.4z"/>
  <path d="M139.9 157.4 c-1 -1.3 -1 -1.7 0 -2.4 0.8 -0.4 1.1 -1.3 0.7 -1.9 -0.4 -0.6 -0.2 -0.9 0.7 -0.6 0.9 0.4 1.2 1.6 0.9 3.5 -0.5 3.5 -0.5 3.5 -2.3 1.4z"/>
  <path d="M136 152.4 c0 -1.2 -0.6 -1.5 -2.5 -1 -1.4 0.4 -2.5 0.2 -2.5 -0.4 0 -0.5 0.9 -1 1.9 -1 1.1 0 2.3 -0.5 2.7 -1.2 1 -1.5 3.5 1.9 2.7 3.8 -0.7 1.9 -2.3 1.8 -2.3 -0.2z"/>
  <path d="M60.5 150 c-1.5 -1.6 -1.5 -2 -0.3 -1.5 1.2 0.5 1.4 0.1 1.1 -1.9 -0.6 -3.2 -2.1 -3.3 -3.3 -0.3 -0.7 1.7 -0.9 1.8 -0.9 0.4 -0.1 -1 -0.8 -2 -1.6 -2.3 -0.9 -0.4 -2 -1.5 -2.6 -2.5 -1.7 -3.3 3.4 -2.3 8.1 1.6 2.3 1.9 4.9 3.5 5.8 3.5 1.2 0 1 0.5 -0.8 2.5 -2.8 3 -3.2 3.1 -5.5 0.5z"/>
  <path d="M176.7 150.9 c-0.9 -0.6 -1.5 -1.4 -1.3 -1.8 0.3 -0.4 -0.8 -0.7 -2.3 -0.7 -2.2 0.1 -3.7 -1 -6.5 -4.2 -4.3 -5.2 -4.5 -6.1 -1.1 -5.4 1.4 0.2 2.3 0.7 2.1 1 -0.9 0.9 1.5 3.2 3.3 3.2 0.9 0 2.2 0.9 2.9 2 0.7 1.1 2 2 2.9 2 0.9 0 1.3 0.3 1 0.6 -0.3 0.4 -0.2 1.5 0.4 2.5 1.1 2.2 1 2.2 -1.4 0.8z"/>
  <path d="M343 144.2 c0 -7.2 6.5 -12.5 12.5 -10.2 2.5 1 2.5 1 -0.6 7.1 -2.2 4.5 -3.3 5.9 -4.2 5 -1.6 -1.6 -3.7 -1.4 -5.9 0.6 -1.7 1.5 -1.8 1.4 -1.8 -2.5z"/>
  <path d="M448 137.8 c-1.9 -0.5 -4.9 -0.8 -6.7 -0.6 -3 0.4 -3.1 0.3 -1.7 -1.4 1.4 -1.5 1.4 -2.4 0.4 -6.6 -1.2 -4.4 -1.1 -5.3 0.6 -8.7 2.6 -5.4 6.3 -7.7 12.7 -8.3 6.4 -0.5 12.3 1.8 13.9 5.4 0.6 1.3 1.4 2.1 1.8 1.9 1.2 -0.7 -2.8 12.4 -4.8 15.8 -1.6 2.9 -2.3 3.2 -7.3 3.4 -2.9 0.1 -7 -0.3 -8.9 -0.9z"/>
  <path d="M216.3 135.9 c-5.9 -2.3 -6.7 -3.6 -5 -8.1 1 -2.9 1.7 -3.3 5.1 -3.5 2.2 -0.2 4.5 0.2 5.3 0.8 1.5 1.3 1.8 9.5 0.3 10.4 -0.6 0.4 -0.8 1.1 -0.5 1.6 0.8 1.1 1 1.2 -5.2 -1.2z"/>
  <path d="M486.5 134 c-0.3 -0.6 0.1 -1.3 1 -1.6 1.9 -0.8 3 0 2 1.5 -0.8 1.4 -2.2 1.4 -3 0.1z"/>
  <path d="M83.6 118.8 c-5.6 -5.1 -3.8 -10.8 3.4 -10.8 4.6 0 5 0.5 5.7 7.5 0.6 5.5 0.6 5.5 -3 5.5 -2.3 0 -4.5 -0.8 -6.1 -2.2z"/>
  <path d="M420.7 118.3 c-1.3 -1.3 -0.7 -5.1 0.9 -5.7 2.3 -0.9 6.4 2 6.4 4.4 0 1.6 -0.7 2 -3.3 2 -1.9 0 -3.7 -0.3 -4 -0.7z"/>
  <path d="M302 114.3 c0 -1.6 0.7 -5 1.5 -7.8 1.4 -4.8 1.5 -4.8 1 -1 -0.3 2.2 -0.5 5.7 -0.5 7.8 0 2 -0.4 3.7 -1 3.7 -0.5 0 -1 -1.2 -1 -2.7z"/>
  <path d="M478.3 116.3 c-0.7 -0.3 -1.3 -1.6 -1.3 -2.9 0 -1.9 0.5 -2.4 2.5 -2.4 2 0 2.5 0.5 2.5 2.4 0 2.5 -1.5 3.6 -3.7 2.9z"/>
  <path d="M368.4 110.9 c0.3 -1.9 1.4 -4 2.4 -4.7 1.5 -1.1 1.7 -1 2 0.8 0.4 2.5 -1.6 5.3 -3.1 4.3 -0.5 -0.3 -0.7 -0.1 -0.3 0.5 0.3 0.6 0.1 1.4 -0.5 1.8 -0.9 0.5 -1 -0.2 -0.5 -2.7z"/>
  <path d="M315 108 c-0.8 -1.5 -0.6 -2.1 0.9 -3 1.6 -0.8 2.2 -0.7 3 0.8 0.7 1.3 0.7 2.2 -0.1 3 -1.7 1.7 -2.6 1.5 -3.8 -0.8z"/>
  <path d="M436 107 c0 -1 -1.3 -3.5 -3 -5.3 -3.3 -3.8 -3 -4.6 2.3 -6.6 3 -1.2 3.8 -3.6 0.8 -2.6 -3.1 0.9 -2.5 -6.3 0.8 -9.1 3 -2.6 7 -2.1 7.3 1 0.2 3.1 0.1 3.9 -0.8 6 -0.7 1.8 -0.5 1.8 2.4 -0.3 1.8 -1.2 3.7 -1.9 4.4 -1.5 0.7 0.4 1 0.4 0.6 0 -0.4 -0.5 0.2 -2.5 1.3 -4.4 1 -2 1.9 -5 1.9 -6.6 0 -2.6 0.2 -2.8 3 -2.3 1.6 0.4 4.1 1.4 5.5 2.3 2.5 1.6 2.5 1.6 0.4 4.5 -3.3 4.7 -6.7 6.5 -9.1 5 -1.9 -1.2 -2 -1.1 -1.5 0.8 0.3 1.4 0 2.1 -1 2.1 -2.6 0 -7.3 3.3 -9.9 7.1 -2.1 3 -2.4 4.1 -1.5 5.8 2 3.6 1.4 6.1 -1.4 6.1 -1.8 0 -2.5 -0.5 -2.5 -2z"/>
  <path d="M113.9 106.5 c-5.7 -3.1 -5.5 -10.8 0.2 -12 4.4 -1 6.9 2 6.9 8 0 5.6 -2.1 6.7 -7.1 4z"/>
  <path d="M285.3 98.8 c-5.2 -10.4 -5.6 -13.9 -1.8 -16.4 1.4 -0.9 4.2 -1.7 6.3 -1.8 2.9 -0.1 3.9 0.4 4.7 2.2 1.3 3 2.1 2.8 2.9 -0.8 0.4 -2.4 1.1 -3 3.1 -3 6.2 0 11.5 5.1 11.5 11 0 4 -2.2 8 -3.4 6.2 -1.3 -2.1 -2.6 -1.3 -2.6 1.6 0 2.7 0 2.7 -2 -0.5 -1.1 -1.8 -2.2 -3.3 -2.5 -3.3 -0.4 0 -1.8 1.4 -3.2 3 -2.6 3.1 -7.2 6 -9.5 6 -0.7 0 -2.3 -1.9 -3.5 -4.2z"/>
  <path d="M466.5 81.3 c0.8 -1.8 1.8 -3.3 2 -3.3 1 0 0.4 1.6 -1.6 4 -2 2.5 -2 2.5 -0.4 -0.7z"/>
  <path d="M194.3 72.3 c-2.8 -0.5 -3 -3.4 -0.5 -5.6 2.2 -2 4.9 -2.2 5.5 -0.4 0.4 1 -1.9 7 -2.6 6.6 -0.1 -0.1 -1.2 -0.4 -2.4 -0.6z"/>
  <path d="M124.3 66 c-2.4 -1 -2.2 -4.4 0.4 -5.4 2.2 -0.9 3.3 0.2 3.3 3.5 0 3.1 -0.3 3.3 -3.7 1.9z"/>
  <path d="M356 50 c0 -1.1 0.6 -2 1.4 -2 2.1 0 3.1 2.1 1.5 3.1 -2.2 1.4 -2.9 1.1 -2.9 -1.1z"/>
  <path d="M413 47.6 c0 -2.9 1.3 -4.6 3.5 -4.6 2.9 0 3.8 1.3 3 4 -0.8 2.4 -6.5 2.9 -6.5 0.6z"/>
 </g>
</svg>